HIERARCHY
ROOT Hips
{
	OFFSET 0.000000 0.000000 0.000000
	CHANNELS 6 Xposition Yposition Zposition Zrotation Yrotation Xrotation
	JOINT LHipJoint
	{
		OFFSET 0.000000 0.000000 0.000000
		CHANNELS 3 Zrotation Yrotation Xrotation
		JOINT LeftUpLeg
		{
			OFFSET 1.363060 -1.794630 0.839290
			CHANNELS 3 Zrotation Yrotation Xrotation
			JOINT LeftLeg
			{
				OFFSET 2.448110 -6.726130 0.000000
				CHANNELS 3 Zrotation Yrotation Xrotation
				JOINT LeftFoot
				{
					OFFSET 2.562200 -7.039590 0.000000
					CHANNELS 3 Zrotation Yrotation Xrotation
					JOINT LeftToeBase
					{
						OFFSET 0.157640 -0.433110 2.322550
						CHANNELS 3 Zrotation Yrotation Xrotation
						End Site
						{
							OFFSET 0.000000 0.000000 0.000000
						}
					}
				}
			}
		}
	}
	JOINT RHipJoint
	{
		OFFSET 0.000000 0.000000 0.000000
		CHANNELS 3 Zrotation Yrotation Xrotation
		JOINT RightUpLeg
		{
			OFFSET -1.305520 -1.794630 0.839290
			CHANNELS 3 Zrotation Yrotation Xrotation
			JOINT RightLeg
			{
				OFFSET -2.542530 -6.985550 0.000000
				CHANNELS 3 Zrotation Yrotation Xrotation
				JOINT RightFoot
				{
					OFFSET -2.568260 -7.056230 0.000000
					CHANNELS 3 Zrotation Yrotation Xrotation
					JOINT RightToeBase
					{
						OFFSET -0.164730 -0.452590 2.363150
						CHANNELS 3 Zrotation Yrotation Xrotation
						End Site
						{
							OFFSET 0.000000 0.000000 0.000000
						}
					}
				}
			}
		}
	}
	JOINT LowerBack
	{
		OFFSET 0.000000 0.000000 0.000000
		CHANNELS 3 Zrotation Yrotation Xrotation
		JOINT Spine
		{
			OFFSET 0.028270 2.035590 -0.193380
			CHANNELS 3 Zrotation Yrotation Xrotation
			JOINT Spine1
			{
				OFFSET 0.056720 2.048850 -0.042750
				CHANNELS 3 Zrotation Yrotation Xrotation
				JOINT Neck
				{
					OFFSET 0.000000 0.000000 0.000000
					CHANNELS 3 Zrotation Yrotation Xrotation
					JOINT Neck1
					{
						OFFSET -0.054170 1.746240 0.172020
						CHANNELS 3 Zrotation Yrotation Xrotation
						JOINT Head
						{
							OFFSET 0.104070 1.761360 -0.123970
							CHANNELS 3 Zrotation Yrotation Xrotation
							End Site
							{
								OFFSET 0.000000 0.000000 0.000000
							}
						}
					}
				}
				JOINT LeftShoulder
				{
					OFFSET 0.000000 0.000000 0.000000
					CHANNELS 3 Zrotation Yrotation Xrotation
					JOINT LeftArm
					{
						OFFSET 3.362410 1.200890 -0.311210
						CHANNELS 3 Zrotation Yrotation Xrotation
						JOINT LeftForeArm
						{
							OFFSET 4.983000 -0.000000 -0.000000
							CHANNELS 3 Zrotation Yrotation Xrotation
							JOINT LeftHand
							{
								OFFSET 3.483560 -0.000000 -0.000000
								CHANNELS 3 Zrotation Yrotation Xrotation
								JOINT LeftFingerBase
								{
									OFFSET 0.000000 0.000000 0.000000
									CHANNELS 3 Zrotation Yrotation Xrotation
									JOINT LeftHandIndex1
									{
										OFFSET 0.715260 -0.000000 -0.000000
										CHANNELS 3 Zrotation Yrotation Xrotation
										End Site
										{
											OFFSET 0.000000 0.000000 0.000000
										}
									}
								}
								JOINT LThumb
								{
									OFFSET 0.000000 0.000000 0.000000
									CHANNELS 3 Zrotation Yrotation Xrotation
									End Site
									{
										OFFSET 0.000000 0.000000 0.000000
									}
								}
							}
						}
					}
				}
				JOINT RightShoulder
				{
					OFFSET 0.000000 0.000000 0.000000
					CHANNELS 3 Zrotation Yrotation Xrotation
					JOINT RightArm
					{
						OFFSET -3.136600 1.374050 -0.404650
						CHANNELS 3 Zrotation Yrotation Xrotation
						JOINT RightForeArm
						{
							OFFSET -5.241900 -0.000000 -0.000000
							CHANNELS 3 Zrotation Yrotation Xrotation
							JOINT RightHand
							{
								OFFSET -3.444170 -0.000000 -0.000000
								CHANNELS 3 Zrotation Yrotation Xrotation
								JOINT RightFingerBase
								{
									OFFSET 0.000000 0.000000 0.000000
									CHANNELS 3 Zrotation Yrotation Xrotation
									JOINT RightHandIndex1
									{
										OFFSET -0.622530 -0.000000 -0.000000
										CHANNELS 3 Zrotation Yrotation Xrotation
										End Site
										{
											OFFSET 0.000000 0.000000 0.000000
										}
									}
								}
								JOINT RThumb
								{
									OFFSET 0.000000 0.000000 0.000000
									CHANNELS 3 Zrotation Yrotation Xrotation
									End Site
									{
										OFFSET 0.000000 0.000000 0.000000
									}
								}
							}
						}
					}
				}
			}
		}
	}
}
MOTION
Frames: 9
Frame Time: 0.008333
3.397776 0.865404 -12.726345 7.146206 13.031971 -4.945765 -1.730593 2.145909 0.434339 -19.450277 7.353393 32.867397 -6.274069 2.045960 5.327378 3.581402 -18.955120 18.020157 -1.289459 6.189806 -8.442247 -1.072236 2.536906 -1.288030 4.610102 6.984851 -42.234158 -4.899966 -3.095889 9.118061 1.730312 -3.837990 13.755742 -1.507514 8.573933 -24.038431 -3.039413 -1.093991 -1.432882 -1.793140 -2.243686 -0.928834 0.277973 -0.327193 0.275721 -4.735271 -0.459419 1.770042 3.417166 -3.465040 0.296604 -0.015537 -1.156916 3.862091 -3.616521 -2.047196 -0.330012 -8.108559 3.167508 2.345575 2.536453 -1.078174 -4.490106 0.207307 -0.226704 -14.956700 -3.569145 -9.625109 4.172986 -1.345570 0.000000 0.000000 1.699873 17.777870 -10.151010 -3.956011 2.538132 -0.593311 5.946373 -12.918717 -9.628204 -4.499394 5.075424 -13.271016 0.233923 -0.033776 1.293817 -6.043589 -22.142315 28.397104 0.328408 0.000000 0.000000 -12.815760 13.504732 28.214533
3.410209 0.890787 -12.689704 7.078904 13.148328 -4.876147 -1.789051 2.152223 0.453394 -19.458071 7.358039 32.729080 -6.277232 2.157719 5.279150 3.602879 -19.054918 18.416695 -1.302984 6.201063 -8.484414 -1.137633 2.542547 -1.359203 4.494564 7.127305 -42.447353 -4.526648 -2.808801 7.164058 1.763364 -3.980214 12.964677 -1.529468 8.608784 -24.076975 -3.150258 -1.132356 -1.411856 -1.806710 -2.313679 -0.913492 0.290987 -0.308389 0.314435 -4.611834 -0.441629 2.072706 3.487217 -3.353459 0.368344 0.075754 -1.111817 3.969100 -3.603138 -2.149607 -0.328320 -8.378843 3.115885 0.255986 2.399920 -1.210995 -4.519342 0.215292 -0.190483 -15.035241 -3.676891 -9.465193 4.165064 -1.368732 0.000000 0.000000 1.708829 17.989414 -10.167320 -4.007731 2.582750 -0.602288 5.770395 -12.942041 -9.723806 -4.733674 5.291566 -13.371685 0.231481 -0.049600 1.317479 -5.961800 -22.407404 27.246998 0.351229 0.000000 0.000000 -12.518222 13.485045 27.575462
3.417332 0.906842 -12.677302 6.983764 13.232275 -4.828253 -1.858534 2.151366 0.467093 -19.482670 7.354886 32.572277 -6.283276 2.262537 5.221240 3.627420 -19.134089 18.868547 -1.310853 6.246466 -8.408188 -1.186116 2.554487 -1.388982 4.449158 7.273883 -42.640301 -4.129903 -2.496326 5.180623 1.791316 -4.132785 12.129210 -1.549613 8.649895 -24.177559 -3.271316 -1.176065 -1.413543 -1.825784 -2.390169 -0.929086 0.283567 -0.319844 0.285816 -4.571249 -0.475134 2.160479 3.497995 -3.329133 0.354160 0.073881 -1.108349 4.037800 -3.600238 -2.143385 -0.318405 -8.304076 3.173918 -0.379781 2.495944 -1.242455 -4.537893 0.204477 -0.172524 -15.083804 -3.768422 -9.285887 4.130545 -1.390954 0.000000 0.000000 1.643265 18.121561 -10.254010 -4.073953 2.618585 -0.612113 5.576147 -12.989642 -9.845695 -4.991306 5.467496 -13.514271 0.227508 -0.066256 1.318351 -5.990209 -22.685959 26.024754 0.373357 0.000000 0.000000 -12.257079 13.438856 26.873451
3.418106 0.917225 -12.668675 6.884200 13.305531 -4.789846 -1.931786 2.147088 0.477300 -19.519577 7.345632 32.412483 -6.291294 2.364641 5.156408 3.647550 -19.224514 19.293865 -1.325685 6.273457 -8.402318 -1.277193 2.549581 -1.451221 4.317855 7.384530 -42.882839 -3.730159 -2.190687 3.174007 1.815727 -4.336637 11.246110 -1.576033 8.671988 -24.296623 -3.399290 -1.220536 -1.420321 -1.844672 -2.467514 -0.947394 0.274842 -0.331970 0.245143 -4.542542 -0.515954 2.229224 3.497256 -3.326517 0.328218 0.053652 -1.117418 4.077160 -3.613854 -2.159867 -0.314366 -8.354712 3.176013 -1.147925 2.567100 -1.303584 -4.569013 0.190984 -0.158131 -15.171274 -3.869118 -9.120962 4.099079 -1.412925 0.000000 0.000000 1.540809 18.189182 -10.399732 -4.150428 2.647304 -0.624388 5.344904 -13.051255 -9.988338 -5.262731 5.613466 -13.681089 0.222165 -0.085458 1.291353 -6.145924 -23.030062 24.660370 0.392014 0.000000 0.000000 -12.142073 13.305878 25.975046
3.397777 0.916365 -12.664863 6.707417 13.300718 -4.772794 -2.012008 2.127010 0.475375 -19.599438 7.305931 32.260780 -6.284991 2.474999 5.122647 3.661498 -19.375439 19.685553 -1.350943 6.300927 -8.442783 -1.417954 2.526551 -1.529261 4.082189 7.448392 -43.232819 -3.328632 -1.871430 1.188448 1.851349 -4.696661 10.368479 -1.602752 8.682474 -24.171026 -3.483270 -1.256804 -1.415375 -1.851776 -2.540221 -0.953571 0.276729 -0.346249 0.203169 -4.529881 -0.564552 2.272834 3.499068 -3.356254 0.284661 -0.034542 -1.147354 4.068409 -3.665377 -2.224201 -0.318588 -8.453753 3.159830 -1.808280 2.571926 -1.329839 -4.595427 0.186458 -0.129326 -15.248493 -3.964635 -8.884238 4.081439 -1.432291 0.000000 0.000000 1.492376 18.245361 -10.525754 -4.201645 2.676160 -0.636845 5.127367 -13.093659 -10.123755 -5.520057 5.742445 -13.983606 0.207049 -0.104410 1.250825 -6.719368 -23.443388 23.215244 0.407852 0.000000 0.000000 -12.000590 13.155049 24.576017
3.402926 0.935468 -12.564559 6.537565 13.336407 -4.706851 -2.041357 2.114313 0.478449 -19.645548 7.287391 32.190475 -6.249820 2.597454 5.146007 3.671955 -19.545937 20.153936 -1.364567 6.307735 -8.501781 -1.501861 2.521372 -1.558434 3.931491 7.584691 -43.454605 -2.929926 -1.530401 -0.813110 1.884015 -4.998222 9.591726 -1.626010 8.688105 -23.950079 -3.561902 -1.302432 -1.445661 -1.868396 -2.623030 -0.971083 0.275667 -0.375361 0.162037 -4.487774 -0.586833 2.324167 3.535271 -3.330089 0.349072 -0.076148 -1.138117 4.130737 -3.621700 -2.222288 -0.305976 -8.204314 3.258482 -1.833455 2.596134 -1.297270 -4.612367 0.189380 -0.093359 -15.242296 -4.016881 -8.621287 4.048114 -1.454059 0.000000 0.000000 1.357738 18.141094 -10.782551 -4.250800 2.684009 -0.652205 4.882969 -13.149015 -10.282472 -5.787515 5.835996 -14.266971 0.192086 -0.126199 1.173521 -7.835669 -24.038578 21.528702 0.416514 0.000000 0.000000 -11.936616 12.935264 23.330755
3.411196 0.921758 -12.577221 6.368409 13.370265 -4.722888 -2.127019 2.069444 0.453825 -19.731627 7.245162 32.033989 -6.231111 2.687435 5.134757 3.684348 -19.707779 20.683577 -1.375282 6.266700 -8.651731 -1.565397 2.520184 -1.557822 3.829037 7.763127 -43.611652 -2.565852 -1.190778 -2.851815 1.898565 -5.159211 8.859082 -1.644392 8.693858 -23.757967 -3.636558 -1.343026 -1.469231 -1.884038 -2.697317 -0.998027 0.278551 -0.411408 0.100676 -4.469011 -0.615582 2.288315 3.542925 -3.364994 0.349409 -0.128242 -1.149253 4.133380 -3.636295 -2.231881 -0.306608 -8.438848 3.177185 -1.964448 2.580540 -1.344277 -4.652171 0.178658 -0.082883 -15.307702 -4.099171 -8.453482 3.991785 -1.468156 0.000000 0.000000 1.363295 18.205214 -10.840203 -4.269874 2.698164 -0.661321 4.736053 -13.189465 -10.407367 -6.012405 5.905358 -14.422762 0.191730 -0.141313 1.126933 -8.702450 -24.504539 20.121271 0.430223 0.000000 0.000000 -11.967247 12.637746 22.425682
3.412913 0.920947 -12.513797 6.218871 13.430167 -4.705971 -2.176168 2.040008 0.444025 -19.774038 7.232954 31.913769 -6.206490 2.773592 5.132009 3.692884 -19.881926 21.190842 -1.393673 6.199965 -8.864526 -1.659527 2.506720 -1.576216 3.683630 7.922368 -43.781757 -2.195496 -0.845675 -4.865234 1.910512 -5.336526 8.131003 -1.662377 8.700461 -23.502483 -3.691767 -1.371993 -1.461080 -1.888518 -2.759589 -1.009236 0.296463 -0.441264 0.052728 -4.437189 -0.631607 2.267736 3.551950 -3.400627 0.360230 -0.176911 -1.160507 4.137010 -3.643245 -2.237817 -0.307260 -8.697109 3.079422 -2.152313 2.559665 -1.398739 -4.695428 0.166901 -0.074374 -15.396744 -4.187027 -8.305258 3.930667 -1.482977 0.000000 0.000000 1.327040 18.194338 -10.938598 -4.296345 2.706329 -0.671668 4.575981 -13.241440 -10.537933 -6.227252 5.952751 -14.570570 0.194716 -0.152907 1.101640 -9.344361 -24.856791 18.941765 0.448455 0.000000 0.000000 -11.682014 12.514278 21.909437
3.405781 0.917350 -12.430914 6.059164 13.478334 -4.683003 -2.202809 2.026350 0.431720 -19.801006 7.227309 31.686398 -6.219910 2.798274 5.011495 3.670615 -20.100437 21.687672 -1.416433 6.073593 -9.301666 -1.806738 2.469561 -1.630735 3.444020 7.960577 -44.026890 -1.816344 -0.405390 -6.388026 1.964707 -5.496062 7.412112 -1.685227 8.703918 -23.140158 -3.738232 -1.405631 -1.478134 -1.907341 -2.829578 -1.045986 0.308365 -0.470818 -0.028385 -4.434912 -0.663077 2.197543 3.550125 -3.465720 0.351384 -0.212638 -1.177032 4.118211 -3.666064 -2.253134 -0.308161 -8.984407 2.976965 -2.301322 2.530651 -1.448887 -4.737875 0.153813 -0.065771 -15.459926 -4.247125 -8.142166 3.899887 -1.495165 0.000000 0.000000 1.324659 18.156898 -11.027353 -4.295909 2.726767 -0.678175 4.479203 -13.217982 -10.639072 -6.389034 5.980423 -14.699040 0.201530 -0.156487 1.127682 -9.430270 -25.164423 18.040018 0.469695 0.000000 0.000000 -10.882525 12.634993 22.073084
